<?xml version="1.0" standalone="no"?>
<!DOCTYPE svg PUBLIC "-//W3C//DTD SVG 20010904//EN"
 "http://www.w3.org/TR/2001/REC-SVG-20010904/DTD/svg10.dtd">
<svg version="1.0" xmlns="http://www.w3.org/2000/svg"
 width="688.000000pt" height="688.000000pt" viewBox="0 0 688.000000 688.000000"
 preserveAspectRatio="xMidYMid meet">
<metadata>
Created by potrace 1.14, written by Peter Selinger 2001-2017
</metadata>
<g transform="translate(0.000000,688.000000) scale(0.100000,-0.100000)"
fill="#000000" stroke="none">
<path d="M4558 6735 c-1 -1 -41 -5 -88 -8 -47 -4 -96 -8 -110 -11 -14 -3 -43
-7 -65 -10 -48 -6 -94 -15 -117 -22 -10 -3 -30 -8 -45 -11 -42 -8 -58 -11 -58
-13 0 -1 -11 -3 -25 -6 -14 -2 -32 -7 -40 -11 -16 -6 -28 -10 -57 -17 -10 -3
-19 -5 -20 -6 -2 -2 -7 -4 -13 -5 -5 -1 -12 -4 -15 -5 -3 -1 -8 -3 -12 -4 -5
-1 -12 -4 -18 -8 -5 -3 -29 -11 -52 -17 -23 -6 -59 -19 -80 -28 -21 -9 -42
-17 -48 -19 -5 -1 -40 -16 -78 -33 -37 -17 -70 -31 -73 -31 -7 0 -211 -102
-303 -152 -42 -23 -86 -46 -98 -52 -13 -6 -23 -14 -23 -18 0 -5 -5 -8 -10 -8
-6 0 -47 -22 -91 -50 -44 -27 -85 -50 -90 -50 -5 0 -9 -4 -9 -8 0 -5 -19 -19
-42 -32 -24 -13 -49 -30 -56 -37 -8 -7 -27 -20 -43 -29 -17 -8 -38 -22 -47
-30 -9 -8 -80 -61 -157 -118 -77 -56 -160 -119 -185 -140 -25 -20 -52 -43 -60
-49 -33 -26 -125 -103 -140 -117 -9 -8 -54 -49 -100 -90 -85 -76 -376 -364
-460 -456 -61 -66 -296 -347 -332 -396 -9 -13 -46 -63 -82 -111 -37 -48 -66
-92 -66 -97 0 -4 -4 -10 -8 -12 -7 -3 -118 -165 -132 -193 -5 -9 -31 -53 -103
-173 -15 -26 -39 -71 -53 -99 -14 -29 -29 -55 -33 -57 -4 -3 -13 -23 -21 -45
-7 -23 -17 -41 -22 -41 -4 0 -8 -4 -8 -10 0 -5 -14 -40 -31 -77 -30 -64 -118
-286 -123 -308 -2 -5 -10 -35 -20 -65 -18 -57 -54 -197 -62 -240 -2 -14 -9
-47 -14 -75 -10 -53 -20 -126 -26 -185 -4 -48 -4 -285 1 -340 5 -66 15 -136
26 -194 6 -28 12 -62 14 -76 2 -14 9 -38 15 -55 6 -16 11 -32 11 -35 -3 -32
68 -227 128 -355 114 -240 261 -445 466 -651 300 -301 694 -555 1130 -729 66
-26 134 -54 152 -61 17 -8 37 -14 45 -14 8 0 18 -3 22 -8 4 -4 11 -7 14 -8 4
0 41 -11 82 -24 41 -13 77 -24 80 -25 3 -1 25 -7 50 -14 25 -7 52 -15 60 -17
8 -2 60 -15 115 -29 55 -14 111 -27 125 -29 14 -3 35 -7 46 -9 12 -3 39 -8 60
-11 22 -4 46 -8 54 -11 8 -2 35 -6 60 -9 25 -3 56 -8 70 -11 14 -3 50 -8 80
-11 30 -3 75 -7 100 -10 142 -14 216 -17 410 -17 203 0 377 8 431 18 13 3 44
7 69 10 25 3 56 8 70 10 14 3 42 8 64 11 72 11 135 24 211 44 22 6 51 13 64
16 141 30 440 152 593 241 183 107 356 285 490 502 77 126 159 296 200 416 11
33 26 74 33 90 11 27 46 134 51 160 1 6 16 63 33 128 17 65 33 132 36 150 3
18 8 39 10 47 2 8 7 31 10 50 3 19 10 60 15 90 5 30 12 72 15 93 3 20 8 54 11
75 8 49 11 74 18 157 3 39 8 90 11 115 25 232 25 876 0 1130 -2 19 -7 73 -10
120 -4 47 -9 94 -11 105 -3 11 -7 43 -9 70 -3 28 -7 64 -10 80 -3 17 -7 55
-10 85 -4 30 -9 62 -12 70 -3 8 -6 29 -8 45 -1 17 -7 57 -13 90 -6 33 -13 71
-16 85 -2 14 -12 61 -21 105 -9 44 -19 93 -21 108 -20 110 -134 527 -167 612
-6 17 -12 32 -12 35 -2 17 -39 117 -48 128 -5 6 -7 12 -4 12 6 0 -30 93 -64
167 -10 24 -19 45 -19 48 0 13 -146 304 -182 363 -21 34 -38 66 -38 71 0 5 -3
11 -8 13 -4 2 -23 28 -42 58 -41 64 -36 58 -132 175 -131 159 -273 276 -418
344 -55 25 -146 56 -185 63 -5 0 -26 5 -45 10 -19 4 -84 11 -145 14 -60 3
-115 7 -122 9 -6 2 -13 2 -15 0z"/>
</g>
</svg>
